<?xml version="1.0" encoding="utf-8"?>
<!-- Generator: Adobe Illustrator 28.0.0, SVG Export Plug-In . SVG Version: 6.00 Build 0)  -->
<svg version="1.1" id="Layer_1" xmlns="http://www.w3.org/2000/svg" xmlns:xlink="http://www.w3.org/1999/xlink" x="0px" y="0px"
	 viewBox="0 0 90 90" style="enable-background:new 0 0 90 90;" xml:space="preserve">
<style type="text/css">
	.st0{fill-rule:evenodd;clip-rule:evenodd;fill:#FFFFFF;}
</style>
<path class="st0" d="M45,90c24.9,0,45-20.1,45-45S69.9,0,45,0S0,20.1,0,45S20.1,90,45,90z M68.5,21.5c2,2,2,5.1,0,7.1L52.1,45
	l16.5,16.5c2,2,2,5.1,0,7.1c-2,2-5.1,2-7.1,0L45,52.1L28.5,68.5c-2,2-5.1,2-7.1,0c-2-2-2-5.1,0-7.1L37.9,45L21.5,28.5
	c-2-2-2-5.1,0-7.1c2-2,5.1-2,7.1,0L45,37.9l16.5-16.5C63.4,19.5,66.6,19.5,68.5,21.5z"/>
</svg>
